<svg width="13" height="15" viewBox="0 0 13 15" fill="none" xmlns="http://www.w3.org/2000/svg">
<path d="M8.98174 1.28781C7.67787 0.98483 6.32189 0.98483 5.01801 1.28781C4.26495 0.825941 3.69001 0.613674 3.27188 0.524074C3.09342 0.483797 2.91081 0.464821 2.72788 0.467541C2.64464 0.469797 2.56179 0.479796 2.48041 0.497408L2.46974 0.499541L2.46548 0.501674H2.46228L2.60841 1.01474L2.46228 0.502741C2.38734 0.523918 2.31795 0.561248 2.25898 0.612109C2.20001 0.662969 2.1529 0.726126 2.12094 0.797141C1.80625 1.5019 1.7463 2.29412 1.95134 3.03821C1.42029 3.68179 1.13089 4.49075 1.13321 5.32514C1.13321 6.98167 1.62174 8.09527 2.45481 8.81101C3.03828 9.31234 3.74654 9.57901 4.45694 9.73154C4.34515 10.0599 4.30301 10.4079 4.33321 10.7534V11.3913C3.89908 11.4819 3.59828 11.4531 3.38388 11.3827C3.11614 11.2942 2.91028 11.1161 2.71294 10.8601C2.60979 10.7221 2.51367 10.579 2.42494 10.4313L2.36414 10.3321C2.28737 10.2044 2.20771 10.0785 2.12521 9.95448C1.92254 9.65474 1.62174 9.27927 1.13534 9.15127L0.619078 9.01581L0.348145 10.0483L0.864411 10.1838C0.949745 10.2051 1.06068 10.2851 1.24308 10.5529C1.31328 10.6586 1.38086 10.766 1.44574 10.875L1.51828 10.9923C1.61854 11.1545 1.73374 11.3337 1.86708 11.5086C2.13694 11.8606 2.50494 12.2158 3.05108 12.3961C3.42441 12.5198 3.84894 12.5497 4.33321 12.475V14.4665C4.33321 14.6079 4.3894 14.7436 4.48942 14.8436C4.58944 14.9436 4.7251 14.9998 4.86654 14.9998H9.13321C9.27466 14.9998 9.41032 14.9436 9.51034 14.8436C9.61036 14.7436 9.66654 14.6079 9.66654 14.4665V10.6659C9.66654 10.3299 9.65161 10.0217 9.55668 9.73474C10.2639 9.58541 10.9668 9.31874 11.5471 8.81741C12.3791 8.09634 12.8665 6.97207 12.8665 5.30594V5.30487C12.8639 4.47731 12.5744 3.67627 12.0473 3.03821C12.2521 2.29445 12.1922 1.50265 11.8777 0.798208C11.846 0.727108 11.7991 0.663814 11.7404 0.61277C11.6816 0.561727 11.6123 0.524171 11.5375 0.502741L11.3913 1.01474C11.5375 0.502741 11.5364 0.502741 11.5353 0.502741L11.5332 0.501674L11.5289 0.499541L11.5193 0.497408C11.493 0.490558 11.4663 0.485216 11.4393 0.481408C11.3835 0.473255 11.3272 0.468624 11.2708 0.467541C11.0879 0.464841 10.9053 0.483817 10.7268 0.524074C10.3097 0.613674 9.73481 0.825941 8.98174 1.28781Z" fill="#737373"/>
</svg>
