<svg width="14" height="14" viewBox="0 0 14 14" fill="none" xmlns="http://www.w3.org/2000/svg">
<path d="M7.52324 10.7204C7.59316 10.7901 7.64864 10.8729 7.68649 10.964C7.72435 11.0552 7.74383 11.1529 7.74383 11.2517C7.74383 11.3504 7.72435 11.4481 7.68649 11.5393C7.64864 11.6304 7.59316 11.7132 7.52324 11.7829L7.15199 12.1542C6.4485 12.8576 5.49437 13.2529 4.49949 13.2529C3.50461 13.2529 2.55048 12.8576 1.84699 12.1542C1.14351 11.4507 0.748291 10.4965 0.748291 9.50166C0.748291 8.50678 1.14351 7.55264 1.84699 6.84916L3.35449 5.34228C4.03042 4.66468 4.93985 4.27117 5.89651 4.24236C6.85316 4.21354 7.78463 4.5516 8.50012 5.18728C8.57399 5.25294 8.6342 5.33251 8.67732 5.42144C8.72044 5.51037 8.74561 5.60693 8.75142 5.70559C8.75722 5.80425 8.74354 5.90309 8.71114 5.99646C8.67875 6.08984 8.62828 6.17591 8.56262 6.24978C8.49696 6.32365 8.41739 6.38386 8.32846 6.42698C8.23953 6.4701 8.14297 6.49528 8.04431 6.50108C7.94565 6.50689 7.84681 6.4932 7.75344 6.46081C7.66006 6.42841 7.57399 6.37794 7.50012 6.31228C7.07107 5.93124 6.51264 5.72852 5.93906 5.7456C5.36549 5.76268 4.82011 5.99826 4.41449 6.40416L2.90824 7.90916C2.48622 8.33118 2.24913 8.90357 2.24913 9.50041C2.24913 10.0972 2.48622 10.6696 2.90824 11.0917C3.33027 11.5137 3.90266 11.7508 4.49949 11.7508C5.09633 11.7508 5.66872 11.5137 6.09074 11.0917L6.46199 10.7204C6.53165 10.6507 6.61436 10.5954 6.70541 10.5576C6.79646 10.5199 6.89406 10.5004 6.99262 10.5004C7.09118 10.5004 7.18877 10.5199 7.27982 10.5576C7.37087 10.5954 7.45359 10.6507 7.52324 10.7204ZM12.1532 1.84541C11.4492 1.143 10.4953 0.748535 9.50074 0.748535C8.50622 0.748535 7.5523 1.143 6.84824 1.84541L6.47699 2.21666C6.3361 2.35755 6.25694 2.54865 6.25694 2.74791C6.25694 2.94717 6.3361 3.13826 6.47699 3.27916C6.61789 3.42005 6.80899 3.49921 7.00824 3.49921C7.2075 3.49921 7.3986 3.42005 7.53949 3.27916L7.91074 2.90791C8.33277 2.48588 8.90516 2.24879 9.50199 2.24879C10.0988 2.24879 10.6712 2.48588 11.0932 2.90791C11.5153 3.32993 11.7524 3.90232 11.7524 4.49916C11.7524 5.09599 11.5153 5.66838 11.0932 6.09041L9.58637 7.59791C9.18039 8.00364 8.63471 8.23888 8.06099 8.25549C7.48727 8.27211 6.92889 8.06884 6.50012 7.68728C6.42625 7.62162 6.34017 7.57115 6.2468 7.53876C6.15342 7.50636 6.05459 7.49268 5.95592 7.49848C5.85726 7.50429 5.76071 7.52947 5.67178 7.57258C5.58285 7.6157 5.50328 7.67591 5.43762 7.74978C5.37196 7.82365 5.32149 7.90973 5.28909 8.0031C5.2567 8.09648 5.24301 8.19531 5.24882 8.29398C5.25462 8.39264 5.2798 8.48919 5.32292 8.57812C5.36604 8.66705 5.42625 8.74662 5.50012 8.81228C6.21511 9.44783 7.14595 9.78609 8.10215 9.75786C9.05836 9.72963 9.96762 9.33703 10.6439 8.66041L12.1514 7.15353C12.8546 6.44964 13.2498 5.49546 13.2501 4.50048C13.2505 3.5055 12.856 2.55104 12.1532 1.84666V1.84541Z" fill="#737373"/>
</svg>
